<svg xmlns="http://www.w3.org/2000/svg" fill-rule="evenodd" stroke-linejoin="round" stroke-miterlimit="2" clip-rule="evenodd" viewBox="0 0 32 33"><g transform="matrix(.98198 0 0 1 -4006.46 .937)" fill="#000000" class="color000000 svgShape"><rect width="32" height="32" x="4080.33" fill="none"></rect><path fill="#ffffff" d="M125.833,115.768L121.906,113.678C121.783,113.612 121.636,113.612 121.514,113.678L111.867,118.828C111.735,118.899 111.651,119.034 111.646,119.182C111.641,119.331 111.716,119.471 111.843,119.55L115.522,121.835L111.859,123.895C111.729,123.968 111.648,124.104 111.646,124.253C111.644,124.401 111.721,124.539 111.849,124.616L115.924,127.057L115.924,133.232C115.924,133.385 116.008,133.525 116.142,133.598L125.644,138.77C125.702,138.802 125.768,138.821 125.839,138.822L125.851,138.822C125.918,138.821 125.981,138.805 126.037,138.776L136.39,133.605C136.531,133.534 136.621,133.39 136.621,133.232L136.621,126.762L140.275,124.601C140.404,124.524 140.483,124.384 140.479,124.233C140.476,124.083 140.392,123.946 140.259,123.875L136.214,121.711L139.997,119.558C140.126,119.485 140.206,119.35 140.208,119.203C140.21,119.055 140.135,118.918 140.009,118.841L130.655,113.113C130.522,113.032 130.355,113.032 130.221,113.112L125.833,115.768ZM135.787,127.255L130.479,130.395C130.347,130.473 130.181,130.472 130.05,130.391L125.854,127.821L121.938,130.385C121.804,130.472 121.633,130.475 121.496,130.393L116.757,127.556C116.757,129.191 116.757,132.984 116.757,132.984L125.43,137.704L125.43,129.415C125.43,129.186 125.616,128.999 125.846,128.999C126.076,128.999 126.263,129.186 126.263,129.415L126.263,137.731C128.132,136.798 135.787,132.974 135.787,132.974L135.787,127.255ZM135.362,122.2L126.655,127.335C126.66,127.338 130.271,129.55 130.271,129.55L135.79,126.285C135.815,125.136 136.009,124.707 136.204,124.784C136.369,124.718 136.534,125.017 136.595,125.809L139.213,124.26L135.362,122.2ZM125.051,127.35L116.338,122.332C116.338,122.332 112.893,124.27 112.893,124.27C112.893,124.27 121.7,129.544 121.7,129.544L125.051,127.35ZM117.168,121.848L125.844,126.845L134.524,121.727L125.849,116.73L117.168,121.848ZM124.994,116.266L116.813,121.09L116.346,121.365L112.896,119.223C112.896,119.223 121.71,114.518 121.71,114.518L124.994,116.266ZM126.666,116.238L130.436,113.957C130.436,113.957 138.972,119.183 138.972,119.183C138.972,119.183 135.353,121.242 135.353,121.242L126.666,116.238Z" transform="matrix(1.01835 0 0 1 3967.96 -109.937)" class="color040804 svgShape"></path></g></svg>